<mxfile host="65bd71144e">
    <diagram id="J2GXFOYjXk2J2oIvpyIB" name="V1">
        <mxGraphModel dx="2910" dy="1567" grid="1" gridSize="10" guides="1" tooltips="1" connect="1" arrows="1" fold="1" page="1" pageScale="1" pageWidth="827" pageHeight="1169" math="0" shadow="0">
            <root>
                <mxCell id="0"/>
                <mxCell id="1" parent="0"/>
                <mxCell id="_GXC5Yq0P-tagLndNN0D-5" style="edgeStyle=orthogonalEdgeStyle;rounded=0;orthogonalLoop=1;jettySize=auto;html=1;exitX=0.5;exitY=1;exitDx=0;exitDy=0;entryX=0;entryY=0.5;entryDx=0;entryDy=0;endArrow=none;endFill=0;" parent="1" source="_GXC5Yq0P-tagLndNN0D-1" target="_GXC5Yq0P-tagLndNN0D-4" edge="1">
                    <mxGeometry relative="1" as="geometry"/>
                </mxCell>
                <mxCell id="_GXC5Yq0P-tagLndNN0D-1" value="Usuario" style="rounded=1;whiteSpace=wrap;html=1;" parent="1" vertex="1">
                    <mxGeometry x="335" y="220" width="120" height="60" as="geometry"/>
                </mxCell>
                <mxCell id="_GXC5Yq0P-tagLndNN0D-10" style="edgeStyle=orthogonalEdgeStyle;rounded=0;orthogonalLoop=1;jettySize=auto;html=1;exitX=0.5;exitY=1;exitDx=0;exitDy=0;entryX=0;entryY=0.5;entryDx=0;entryDy=0;endArrow=none;endFill=0;" parent="1" source="_GXC5Yq0P-tagLndNN0D-2" target="_GXC5Yq0P-tagLndNN0D-8" edge="1">
                    <mxGeometry relative="1" as="geometry"/>
                </mxCell>
                <mxCell id="_GXC5Yq0P-tagLndNN0D-2" value="Propietario" style="rounded=1;whiteSpace=wrap;html=1;" parent="1" vertex="1">
                    <mxGeometry x="-5" y="380" width="120" height="60" as="geometry"/>
                </mxCell>
                <mxCell id="_GXC5Yq0P-tagLndNN0D-11" style="edgeStyle=orthogonalEdgeStyle;rounded=0;orthogonalLoop=1;jettySize=auto;html=1;exitX=0.5;exitY=1;exitDx=0;exitDy=0;endArrow=none;endFill=0;entryX=0.5;entryY=0;entryDx=0;entryDy=0;" parent="1" source="_GXC5Yq0P-tagLndNN0D-3" target="BW8AyTwtvWDLKeVXaowr-4" edge="1">
                    <mxGeometry relative="1" as="geometry">
                        <mxPoint x="510" y="510" as="targetPoint"/>
                    </mxGeometry>
                </mxCell>
                <mxCell id="_GXC5Yq0P-tagLndNN0D-26" style="edgeStyle=orthogonalEdgeStyle;rounded=0;orthogonalLoop=1;jettySize=auto;html=1;entryX=0;entryY=0.5;entryDx=0;entryDy=0;endArrow=none;endFill=0;" parent="1" source="_GXC5Yq0P-tagLndNN0D-3" target="_GXC5Yq0P-tagLndNN0D-24" edge="1">
                    <mxGeometry relative="1" as="geometry"/>
                </mxCell>
                <mxCell id="_GXC5Yq0P-tagLndNN0D-3" value="Inquilino" style="rounded=1;whiteSpace=wrap;html=1;" parent="1" vertex="1">
                    <mxGeometry x="610" y="370" width="120" height="60" as="geometry"/>
                </mxCell>
                <mxCell id="_GXC5Yq0P-tagLndNN0D-6" style="rounded=0;orthogonalLoop=1;jettySize=auto;html=1;exitX=0.5;exitY=1;exitDx=0;exitDy=0;entryX=0.5;entryY=0;entryDx=0;entryDy=0;endArrow=none;endFill=0;" parent="1" source="_GXC5Yq0P-tagLndNN0D-4" target="_GXC5Yq0P-tagLndNN0D-2" edge="1">
                    <mxGeometry relative="1" as="geometry"/>
                </mxCell>
                <mxCell id="_GXC5Yq0P-tagLndNN0D-7" style="edgeStyle=none;rounded=0;orthogonalLoop=1;jettySize=auto;html=1;exitX=0.5;exitY=0;exitDx=0;exitDy=0;entryX=0.5;entryY=0;entryDx=0;entryDy=0;endArrow=none;endFill=0;" parent="1" source="_GXC5Yq0P-tagLndNN0D-4" target="_GXC5Yq0P-tagLndNN0D-3" edge="1">
                    <mxGeometry relative="1" as="geometry"/>
                </mxCell>
                <mxCell id="_GXC5Yq0P-tagLndNN0D-4" value="" style="triangle;whiteSpace=wrap;html=1;rotation=90;" parent="1" vertex="1">
                    <mxGeometry x="370" y="335" width="50" height="50" as="geometry"/>
                </mxCell>
                <mxCell id="_GXC5Yq0P-tagLndNN0D-12" style="edgeStyle=orthogonalEdgeStyle;rounded=0;orthogonalLoop=1;jettySize=auto;html=1;entryX=0.5;entryY=0;entryDx=0;entryDy=0;endArrow=none;endFill=0;exitX=1;exitY=0.5;exitDx=0;exitDy=0;" parent="1" source="_GXC5Yq0P-tagLndNN0D-8" target="_GXC5Yq0P-tagLndNN0D-9" edge="1">
                    <mxGeometry relative="1" as="geometry">
                        <mxPoint x="530" y="570" as="sourcePoint"/>
                    </mxGeometry>
                </mxCell>
                <mxCell id="_GXC5Yq0P-tagLndNN0D-8" value="Alquila" style="rhombus;whiteSpace=wrap;html=1;" parent="1" vertex="1">
                    <mxGeometry x="100" y="510" width="130" height="60" as="geometry"/>
                </mxCell>
                <mxCell id="H1hdoALfELGVOp0SBB5l-1" style="edgeStyle=orthogonalEdgeStyle;rounded=0;orthogonalLoop=1;jettySize=auto;html=1;endArrow=none;endFill=0;entryX=0.5;entryY=1;entryDx=0;entryDy=0;" parent="1" source="_GXC5Yq0P-tagLndNN0D-9" target="BW8AyTwtvWDLKeVXaowr-1" edge="1">
                    <mxGeometry relative="1" as="geometry">
                        <mxPoint x="940" y="650" as="targetPoint"/>
                    </mxGeometry>
                </mxCell>
                <mxCell id="_GXC5Yq0P-tagLndNN0D-9" value="Habitacion" style="rounded=1;whiteSpace=wrap;html=1;" parent="1" vertex="1">
                    <mxGeometry x="335" y="640" width="120" height="60" as="geometry"/>
                </mxCell>
                <mxCell id="_GXC5Yq0P-tagLndNN0D-20" style="edgeStyle=orthogonalEdgeStyle;rounded=0;orthogonalLoop=1;jettySize=auto;html=1;exitX=0.5;exitY=1;exitDx=0;exitDy=0;entryX=0.5;entryY=0;entryDx=0;entryDy=0;endArrow=none;endFill=0;" parent="1" source="_GXC5Yq0P-tagLndNN0D-14" target="_GXC5Yq0P-tagLndNN0D-19" edge="1">
                    <mxGeometry relative="1" as="geometry"/>
                </mxCell>
                <mxCell id="_GXC5Yq0P-tagLndNN0D-14" value="Sexo" style="rounded=1;whiteSpace=wrap;html=1;" parent="1" vertex="1">
                    <mxGeometry x="585" y="20" width="120" height="60" as="geometry"/>
                </mxCell>
                <mxCell id="_GXC5Yq0P-tagLndNN0D-17" style="edgeStyle=orthogonalEdgeStyle;rounded=0;orthogonalLoop=1;jettySize=auto;html=1;entryX=0.5;entryY=0;entryDx=0;entryDy=0;endArrow=none;endFill=0;" parent="1" source="_GXC5Yq0P-tagLndNN0D-15" target="_GXC5Yq0P-tagLndNN0D-16" edge="1">
                    <mxGeometry relative="1" as="geometry"/>
                </mxCell>
                <mxCell id="_GXC5Yq0P-tagLndNN0D-15" value="Idioma" style="rounded=1;whiteSpace=wrap;html=1;" parent="1" vertex="1">
                    <mxGeometry x="145" y="20" width="120" height="60" as="geometry"/>
                </mxCell>
                <mxCell id="_GXC5Yq0P-tagLndNN0D-18" style="edgeStyle=orthogonalEdgeStyle;rounded=0;orthogonalLoop=1;jettySize=auto;html=1;exitX=0.5;exitY=1;exitDx=0;exitDy=0;entryX=0;entryY=0.5;entryDx=0;entryDy=0;endArrow=none;endFill=0;" parent="1" source="_GXC5Yq0P-tagLndNN0D-16" target="_GXC5Yq0P-tagLndNN0D-1" edge="1">
                    <mxGeometry relative="1" as="geometry"/>
                </mxCell>
                <mxCell id="_GXC5Yq0P-tagLndNN0D-16" value="Habla" style="rhombus;whiteSpace=wrap;html=1;" parent="1" vertex="1">
                    <mxGeometry x="140" y="140" width="130" height="60" as="geometry"/>
                </mxCell>
                <mxCell id="_GXC5Yq0P-tagLndNN0D-21" style="edgeStyle=orthogonalEdgeStyle;rounded=0;orthogonalLoop=1;jettySize=auto;html=1;exitX=0.5;exitY=1;exitDx=0;exitDy=0;entryX=1;entryY=0.5;entryDx=0;entryDy=0;endArrow=none;endFill=0;" parent="1" source="_GXC5Yq0P-tagLndNN0D-19" target="_GXC5Yq0P-tagLndNN0D-1" edge="1">
                    <mxGeometry relative="1" as="geometry"/>
                </mxCell>
                <mxCell id="_GXC5Yq0P-tagLndNN0D-19" value="Es" style="rhombus;whiteSpace=wrap;html=1;" parent="1" vertex="1">
                    <mxGeometry x="580" y="140" width="130" height="60" as="geometry"/>
                </mxCell>
                <mxCell id="_GXC5Yq0P-tagLndNN0D-28" style="edgeStyle=orthogonalEdgeStyle;rounded=0;orthogonalLoop=1;jettySize=auto;html=1;exitX=0.5;exitY=0;exitDx=0;exitDy=0;entryX=0;entryY=0.5;entryDx=0;entryDy=0;endArrow=none;endFill=0;" parent="1" source="_GXC5Yq0P-tagLndNN0D-24" target="_GXC5Yq0P-tagLndNN0D-27" edge="1">
                    <mxGeometry relative="1" as="geometry"/>
                </mxCell>
                <mxCell id="_GXC5Yq0P-tagLndNN0D-24" value="TIene" style="rhombus;whiteSpace=wrap;html=1;" parent="1" vertex="1">
                    <mxGeometry x="877" y="370" width="130" height="60" as="geometry"/>
                </mxCell>
                <mxCell id="BW8AyTwtvWDLKeVXaowr-2" style="edgeStyle=orthogonalEdgeStyle;rounded=0;orthogonalLoop=1;jettySize=auto;html=1;entryX=0.5;entryY=0;entryDx=0;entryDy=0;endArrow=none;endFill=0;exitX=1;exitY=0.5;exitDx=0;exitDy=0;" parent="1" source="_GXC5Yq0P-tagLndNN0D-27" target="BW8AyTwtvWDLKeVXaowr-1" edge="1">
                    <mxGeometry relative="1" as="geometry"/>
                </mxCell>
                <mxCell id="_GXC5Yq0P-tagLndNN0D-27" value="Habitacion Fav" style="rounded=1;whiteSpace=wrap;html=1;" parent="1" vertex="1">
                    <mxGeometry x="1022.5" y="170" width="120" height="60" as="geometry"/>
                </mxCell>
                <mxCell id="_GXC5Yq0P-tagLndNN0D-31" style="edgeStyle=orthogonalEdgeStyle;rounded=0;orthogonalLoop=1;jettySize=auto;html=1;entryX=0;entryY=0.5;entryDx=0;entryDy=0;endArrow=none;endFill=0;" parent="1" source="_GXC5Yq0P-tagLndNN0D-30" target="_GXC5Yq0P-tagLndNN0D-9" edge="1">
                    <mxGeometry relative="1" as="geometry"/>
                </mxCell>
                <mxCell id="_GXC5Yq0P-tagLndNN0D-30" value="Ofrece" style="rhombus;whiteSpace=wrap;html=1;" parent="1" vertex="1">
                    <mxGeometry x="75" y="640" width="130" height="60" as="geometry"/>
                </mxCell>
                <mxCell id="_GXC5Yq0P-tagLndNN0D-33" style="edgeStyle=orthogonalEdgeStyle;rounded=0;orthogonalLoop=1;jettySize=auto;html=1;entryX=0;entryY=0.5;entryDx=0;entryDy=0;endArrow=none;endFill=0;" parent="1" source="_GXC5Yq0P-tagLndNN0D-32" target="_GXC5Yq0P-tagLndNN0D-30" edge="1">
                    <mxGeometry relative="1" as="geometry"/>
                </mxCell>
                <mxCell id="_GXC5Yq0P-tagLndNN0D-32" value="Servicios" style="rounded=1;whiteSpace=wrap;html=1;" parent="1" vertex="1">
                    <mxGeometry x="-170" y="640" width="120" height="60" as="geometry"/>
                </mxCell>
                <mxCell id="_GXC5Yq0P-tagLndNN0D-34" value="N" style="text;html=1;align=center;verticalAlign=middle;resizable=0;points=[];autosize=1;strokeColor=none;fillColor=none;" parent="1" vertex="1">
                    <mxGeometry x="305" y="640" width="30" height="30" as="geometry"/>
                </mxCell>
                <mxCell id="_GXC5Yq0P-tagLndNN0D-36" style="edgeStyle=orthogonalEdgeStyle;rounded=0;orthogonalLoop=1;jettySize=auto;html=1;entryX=0.5;entryY=1;entryDx=0;entryDy=0;endArrow=none;endFill=0;" parent="1" source="_GXC5Yq0P-tagLndNN0D-35" target="_GXC5Yq0P-tagLndNN0D-9" edge="1">
                    <mxGeometry relative="1" as="geometry"/>
                </mxCell>
                <mxCell id="_GXC5Yq0P-tagLndNN0D-56" style="edgeStyle=none;rounded=0;orthogonalLoop=1;jettySize=auto;html=1;exitX=0.5;exitY=1;exitDx=0;exitDy=0;entryX=0.5;entryY=0;entryDx=0;entryDy=0;endArrow=none;endFill=0;" parent="1" source="_GXC5Yq0P-tagLndNN0D-35" target="_GXC5Yq0P-tagLndNN0D-44" edge="1">
                    <mxGeometry relative="1" as="geometry"/>
                </mxCell>
                <mxCell id="_GXC5Yq0P-tagLndNN0D-35" value="está" style="rhombus;whiteSpace=wrap;html=1;" parent="1" vertex="1">
                    <mxGeometry x="330" y="760" width="130" height="60" as="geometry"/>
                </mxCell>
                <mxCell id="_GXC5Yq0P-tagLndNN0D-37" value="Apartamento" style="rounded=1;whiteSpace=wrap;html=1;" parent="1" vertex="1">
                    <mxGeometry x="97.5" y="1080" width="120" height="60" as="geometry"/>
                </mxCell>
                <mxCell id="_GXC5Yq0P-tagLndNN0D-38" value="Bajo" style="rounded=1;whiteSpace=wrap;html=1;" parent="1" vertex="1">
                    <mxGeometry x="580" y="1080" width="120" height="60" as="geometry"/>
                </mxCell>
                <mxCell id="_GXC5Yq0P-tagLndNN0D-39" value="Casa" style="rounded=1;whiteSpace=wrap;html=1;" parent="1" vertex="1">
                    <mxGeometry x="335" y="1080" width="120" height="60" as="geometry"/>
                </mxCell>
                <mxCell id="_GXC5Yq0P-tagLndNN0D-51" style="edgeStyle=none;rounded=0;orthogonalLoop=1;jettySize=auto;html=1;exitX=0.5;exitY=1;exitDx=0;exitDy=0;entryX=0.5;entryY=0;entryDx=0;entryDy=0;endArrow=none;endFill=0;" parent="1" source="_GXC5Yq0P-tagLndNN0D-44" target="_GXC5Yq0P-tagLndNN0D-45" edge="1">
                    <mxGeometry relative="1" as="geometry"/>
                </mxCell>
                <mxCell id="_GXC5Yq0P-tagLndNN0D-44" value="Vivienda" style="rounded=1;whiteSpace=wrap;html=1;" parent="1" vertex="1">
                    <mxGeometry x="335" y="870" width="120" height="60" as="geometry"/>
                </mxCell>
                <mxCell id="_GXC5Yq0P-tagLndNN0D-52" style="edgeStyle=none;rounded=0;orthogonalLoop=1;jettySize=auto;html=1;exitX=0.5;exitY=1;exitDx=0;exitDy=0;entryX=0;entryY=0.5;entryDx=0;entryDy=0;endArrow=none;endFill=0;" parent="1" source="_GXC5Yq0P-tagLndNN0D-45" target="_GXC5Yq0P-tagLndNN0D-47" edge="1">
                    <mxGeometry relative="1" as="geometry"/>
                </mxCell>
                <mxCell id="_GXC5Yq0P-tagLndNN0D-45" value="" style="ellipse;whiteSpace=wrap;html=1;aspect=fixed;" parent="1" vertex="1">
                    <mxGeometry x="390" y="960" width="10" height="10" as="geometry"/>
                </mxCell>
                <mxCell id="_GXC5Yq0P-tagLndNN0D-48" style="rounded=0;orthogonalLoop=1;jettySize=auto;html=1;exitX=0.5;exitY=1;exitDx=0;exitDy=0;entryX=0.5;entryY=0;entryDx=0;entryDy=0;endArrow=none;endFill=0;" parent="1" source="_GXC5Yq0P-tagLndNN0D-47" target="_GXC5Yq0P-tagLndNN0D-37" edge="1">
                    <mxGeometry relative="1" as="geometry"/>
                </mxCell>
                <mxCell id="_GXC5Yq0P-tagLndNN0D-49" style="edgeStyle=none;rounded=0;orthogonalLoop=1;jettySize=auto;html=1;exitX=1;exitY=0.5;exitDx=0;exitDy=0;entryX=0.5;entryY=0;entryDx=0;entryDy=0;endArrow=none;endFill=0;" parent="1" source="_GXC5Yq0P-tagLndNN0D-47" target="_GXC5Yq0P-tagLndNN0D-39" edge="1">
                    <mxGeometry relative="1" as="geometry"/>
                </mxCell>
                <mxCell id="_GXC5Yq0P-tagLndNN0D-50" style="edgeStyle=none;rounded=0;orthogonalLoop=1;jettySize=auto;html=1;exitX=0.5;exitY=0;exitDx=0;exitDy=0;entryX=0.5;entryY=0;entryDx=0;entryDy=0;endArrow=none;endFill=0;" parent="1" source="_GXC5Yq0P-tagLndNN0D-47" target="_GXC5Yq0P-tagLndNN0D-38" edge="1">
                    <mxGeometry relative="1" as="geometry"/>
                </mxCell>
                <mxCell id="_GXC5Yq0P-tagLndNN0D-47" value="" style="triangle;whiteSpace=wrap;html=1;rotation=90;" parent="1" vertex="1">
                    <mxGeometry x="370" y="980" width="50" height="50" as="geometry"/>
                </mxCell>
                <mxCell id="_GXC5Yq0P-tagLndNN0D-55" value="" style="curved=1;endArrow=none;html=1;rounded=0;endFill=0;" parent="1" edge="1">
                    <mxGeometry width="50" height="50" relative="1" as="geometry">
                        <mxPoint x="295" y="1000" as="sourcePoint"/>
                        <mxPoint x="495" y="1000" as="targetPoint"/>
                        <Array as="points">
                            <mxPoint x="335" y="1040"/>
                            <mxPoint x="370" y="1050"/>
                            <mxPoint x="400" y="1050"/>
                            <mxPoint x="440" y="1050"/>
                        </Array>
                    </mxGeometry>
                </mxCell>
                <mxCell id="_GXC5Yq0P-tagLndNN0D-58" value="Provincia" style="rounded=1;whiteSpace=wrap;html=1;" parent="1" vertex="1">
                    <mxGeometry x="960" y="1010" width="120" height="60" as="geometry"/>
                </mxCell>
                <mxCell id="BW8AyTwtvWDLKeVXaowr-9" style="edgeStyle=orthogonalEdgeStyle;rounded=0;orthogonalLoop=1;jettySize=auto;html=1;entryX=0;entryY=0.5;entryDx=0;entryDy=0;endArrow=none;endFill=0;" parent="1" source="_GXC5Yq0P-tagLndNN0D-59" target="BW8AyTwtvWDLKeVXaowr-8" edge="1">
                    <mxGeometry relative="1" as="geometry"/>
                </mxCell>
                <mxCell id="_GXC5Yq0P-tagLndNN0D-59" value="Barrio" style="rounded=1;whiteSpace=wrap;html=1;" parent="1" vertex="1">
                    <mxGeometry x="1030" y="870" width="120" height="60" as="geometry"/>
                </mxCell>
                <mxCell id="_GXC5Yq0P-tagLndNN0D-60" value="Locaclidad" style="rounded=1;whiteSpace=wrap;html=1;" parent="1" vertex="1">
                    <mxGeometry x="1400" y="1010" width="120" height="60" as="geometry"/>
                </mxCell>
                <mxCell id="BW8AyTwtvWDLKeVXaowr-12" style="edgeStyle=orthogonalEdgeStyle;rounded=0;orthogonalLoop=1;jettySize=auto;html=1;entryX=0.5;entryY=0;entryDx=0;entryDy=0;endArrow=none;endFill=0;" parent="1" source="_GXC5Yq0P-tagLndNN0D-70" target="BW8AyTwtvWDLKeVXaowr-11" edge="1">
                    <mxGeometry relative="1" as="geometry"/>
                </mxCell>
                <mxCell id="_GXC5Yq0P-tagLndNN0D-70" value="Código Postal" style="rounded=1;whiteSpace=wrap;html=1;" parent="1" vertex="1">
                    <mxGeometry x="1720" y="870" width="120" height="60" as="geometry"/>
                </mxCell>
                <mxCell id="_GXC5Yq0P-tagLndNN0D-73" style="edgeStyle=none;rounded=0;orthogonalLoop=1;jettySize=auto;html=1;entryX=1;entryY=0.5;entryDx=0;entryDy=0;endArrow=none;endFill=0;" parent="1" source="_GXC5Yq0P-tagLndNN0D-72" target="_GXC5Yq0P-tagLndNN0D-44" edge="1">
                    <mxGeometry relative="1" as="geometry"/>
                </mxCell>
                <mxCell id="_GXC5Yq0P-tagLndNN0D-74" style="edgeStyle=none;rounded=0;orthogonalLoop=1;jettySize=auto;html=1;entryX=0;entryY=0.5;entryDx=0;entryDy=0;endArrow=none;endFill=0;" parent="1" source="_GXC5Yq0P-tagLndNN0D-72" target="_GXC5Yq0P-tagLndNN0D-59" edge="1">
                    <mxGeometry relative="1" as="geometry">
                        <mxPoint x="1107.4999999999995" y="900" as="targetPoint"/>
                    </mxGeometry>
                </mxCell>
                <mxCell id="_GXC5Yq0P-tagLndNN0D-72" value="está" style="rhombus;whiteSpace=wrap;html=1;" parent="1" vertex="1">
                    <mxGeometry x="710" y="870" width="130" height="60" as="geometry"/>
                </mxCell>
                <mxCell id="BW8AyTwtvWDLKeVXaowr-1" value="TIene" style="rhombus;whiteSpace=wrap;html=1;" parent="1" vertex="1">
                    <mxGeometry x="1180" y="415" width="130" height="60" as="geometry"/>
                </mxCell>
                <mxCell id="BW8AyTwtvWDLKeVXaowr-3" value="(1,N)" style="text;html=1;align=center;verticalAlign=middle;resizable=0;points=[];autosize=1;strokeColor=none;fillColor=none;" parent="1" vertex="1">
                    <mxGeometry x="1180" y="395" width="50" height="30" as="geometry"/>
                </mxCell>
                <mxCell id="BW8AyTwtvWDLKeVXaowr-5" style="edgeStyle=orthogonalEdgeStyle;rounded=0;orthogonalLoop=1;jettySize=auto;html=1;exitX=0;exitY=0.5;exitDx=0;exitDy=0;entryX=0.5;entryY=0;entryDx=0;entryDy=0;endArrow=none;endFill=0;" parent="1" source="BW8AyTwtvWDLKeVXaowr-4" target="_GXC5Yq0P-tagLndNN0D-9" edge="1">
                    <mxGeometry relative="1" as="geometry"/>
                </mxCell>
                <mxCell id="BW8AyTwtvWDLKeVXaowr-4" value="Alquila" style="rhombus;whiteSpace=wrap;html=1;" parent="1" vertex="1">
                    <mxGeometry x="605" y="510" width="130" height="60" as="geometry"/>
                </mxCell>
                <mxCell id="BW8AyTwtvWDLKeVXaowr-10" style="edgeStyle=orthogonalEdgeStyle;rounded=0;orthogonalLoop=1;jettySize=auto;html=1;entryX=0;entryY=0.5;entryDx=0;entryDy=0;endArrow=none;endFill=0;" parent="1" source="BW8AyTwtvWDLKeVXaowr-8" target="_GXC5Yq0P-tagLndNN0D-70" edge="1">
                    <mxGeometry relative="1" as="geometry"/>
                </mxCell>
                <mxCell id="BW8AyTwtvWDLKeVXaowr-8" value="está" style="rhombus;whiteSpace=wrap;html=1;" parent="1" vertex="1">
                    <mxGeometry x="1395" y="870" width="130" height="60" as="geometry"/>
                </mxCell>
                <mxCell id="BW8AyTwtvWDLKeVXaowr-13" style="edgeStyle=orthogonalEdgeStyle;rounded=0;orthogonalLoop=1;jettySize=auto;html=1;entryX=1;entryY=0.5;entryDx=0;entryDy=0;endArrow=none;endFill=0;" parent="1" source="BW8AyTwtvWDLKeVXaowr-11" target="_GXC5Yq0P-tagLndNN0D-60" edge="1">
                    <mxGeometry relative="1" as="geometry"/>
                </mxCell>
                <mxCell id="BW8AyTwtvWDLKeVXaowr-11" value="está" style="rhombus;whiteSpace=wrap;html=1;" parent="1" vertex="1">
                    <mxGeometry x="1715" y="1010" width="130" height="60" as="geometry"/>
                </mxCell>
                <mxCell id="BW8AyTwtvWDLKeVXaowr-15" style="edgeStyle=orthogonalEdgeStyle;rounded=0;orthogonalLoop=1;jettySize=auto;html=1;entryX=0;entryY=0.5;entryDx=0;entryDy=0;endArrow=none;endFill=0;" parent="1" source="BW8AyTwtvWDLKeVXaowr-14" target="_GXC5Yq0P-tagLndNN0D-60" edge="1">
                    <mxGeometry relative="1" as="geometry"/>
                </mxCell>
                <mxCell id="BW8AyTwtvWDLKeVXaowr-16" style="edgeStyle=orthogonalEdgeStyle;rounded=0;orthogonalLoop=1;jettySize=auto;html=1;entryX=1;entryY=0.5;entryDx=0;entryDy=0;endArrow=none;endFill=0;" parent="1" source="BW8AyTwtvWDLKeVXaowr-14" target="_GXC5Yq0P-tagLndNN0D-58" edge="1">
                    <mxGeometry relative="1" as="geometry"/>
                </mxCell>
                <mxCell id="BW8AyTwtvWDLKeVXaowr-14" value="está" style="rhombus;whiteSpace=wrap;html=1;" parent="1" vertex="1">
                    <mxGeometry x="1170" y="1010" width="130" height="60" as="geometry"/>
                </mxCell>
                <mxCell id="BW8AyTwtvWDLKeVXaowr-17" value="(N,1)" style="text;html=1;align=center;verticalAlign=middle;resizable=0;points=[];autosize=1;strokeColor=none;fillColor=none;" parent="1" vertex="1">
                    <mxGeometry x="1400" y="850" width="50" height="30" as="geometry"/>
                </mxCell>
                <mxCell id="BW8AyTwtvWDLKeVXaowr-21" value="N" style="text;html=1;align=center;verticalAlign=middle;resizable=0;points=[];autosize=1;strokeColor=none;fillColor=none;" parent="1" vertex="1">
                    <mxGeometry x="305" y="220" width="30" height="30" as="geometry"/>
                </mxCell>
                <mxCell id="BW8AyTwtvWDLKeVXaowr-22" value="M" style="text;html=1;align=center;verticalAlign=middle;resizable=0;points=[];autosize=1;strokeColor=none;fillColor=none;" parent="1" vertex="1">
                    <mxGeometry x="200" y="80" width="30" height="30" as="geometry"/>
                </mxCell>
                <mxCell id="BW8AyTwtvWDLKeVXaowr-23" value="N" style="text;html=1;align=center;verticalAlign=middle;resizable=0;points=[];autosize=1;strokeColor=none;fillColor=none;" parent="1" vertex="1">
                    <mxGeometry x="455" y="220" width="30" height="30" as="geometry"/>
                </mxCell>
                <mxCell id="BW8AyTwtvWDLKeVXaowr-24" value="1" style="text;html=1;align=center;verticalAlign=middle;resizable=0;points=[];autosize=1;strokeColor=none;fillColor=none;" parent="1" vertex="1">
                    <mxGeometry x="640" y="80" width="30" height="30" as="geometry"/>
                </mxCell>
                <mxCell id="BW8AyTwtvWDLKeVXaowr-25" value="1" style="text;html=1;align=center;verticalAlign=middle;resizable=0;points=[];autosize=1;strokeColor=none;fillColor=none;" parent="1" vertex="1">
                    <mxGeometry x="55" y="440" width="30" height="30" as="geometry"/>
                </mxCell>
                <mxCell id="BW8AyTwtvWDLKeVXaowr-26" value="N" style="text;html=1;align=center;verticalAlign=middle;resizable=0;points=[];autosize=1;strokeColor=none;fillColor=none;" parent="1" vertex="1">
                    <mxGeometry x="365" y="605" width="30" height="30" as="geometry"/>
                </mxCell>
                <mxCell id="BW8AyTwtvWDLKeVXaowr-27" value="1" style="text;html=1;align=center;verticalAlign=middle;resizable=0;points=[];autosize=1;strokeColor=none;fillColor=none;" parent="1" vertex="1">
                    <mxGeometry x="395" y="605" width="30" height="30" as="geometry"/>
                </mxCell>
                <mxCell id="BW8AyTwtvWDLKeVXaowr-28" value="&lt;div&gt;2&lt;/div&gt;&lt;div&gt;&lt;br&gt;&lt;/div&gt;" style="text;html=1;align=center;verticalAlign=middle;resizable=0;points=[];autosize=1;strokeColor=none;fillColor=none;" parent="1" vertex="1">
                    <mxGeometry x="670" y="430" width="30" height="40" as="geometry"/>
                </mxCell>
                <mxCell id="BW8AyTwtvWDLKeVXaowr-29" value="N" style="text;html=1;align=center;verticalAlign=middle;resizable=0;points=[];autosize=1;strokeColor=none;fillColor=none;" parent="1" vertex="1">
                    <mxGeometry x="730" y="370" width="30" height="30" as="geometry"/>
                </mxCell>
                <mxCell id="BW8AyTwtvWDLKeVXaowr-30" value="&lt;div&gt;M&lt;/div&gt;" style="text;html=1;align=center;verticalAlign=middle;resizable=0;points=[];autosize=1;strokeColor=none;fillColor=none;" parent="1" vertex="1">
                    <mxGeometry x="992.5" y="170" width="30" height="30" as="geometry"/>
                </mxCell>
                <mxCell id="BW8AyTwtvWDLKeVXaowr-31" value="M" style="text;html=1;align=center;verticalAlign=middle;resizable=0;points=[];autosize=1;strokeColor=none;fillColor=none;" parent="1" vertex="1">
                    <mxGeometry x="-40" y="635" width="30" height="30" as="geometry"/>
                </mxCell>
                <mxCell id="BW8AyTwtvWDLKeVXaowr-32" value="1" style="text;html=1;align=center;verticalAlign=middle;resizable=0;points=[];autosize=1;strokeColor=none;fillColor=none;" parent="1" vertex="1">
                    <mxGeometry x="365" y="840" width="30" height="30" as="geometry"/>
                </mxCell>
                <mxCell id="BW8AyTwtvWDLKeVXaowr-33" value="&lt;div&gt;N&lt;/div&gt;" style="text;html=1;align=center;verticalAlign=middle;resizable=0;points=[];autosize=1;strokeColor=none;fillColor=none;" parent="1" vertex="1">
                    <mxGeometry x="365" y="700" width="30" height="30" as="geometry"/>
                </mxCell>
                <mxCell id="BW8AyTwtvWDLKeVXaowr-34" value="1" style="text;html=1;align=center;verticalAlign=middle;resizable=0;points=[];autosize=1;strokeColor=none;fillColor=none;" parent="1" vertex="1">
                    <mxGeometry x="1085" y="1005" width="30" height="30" as="geometry"/>
                </mxCell>
                <mxCell id="BW8AyTwtvWDLKeVXaowr-35" value="&lt;div&gt;N&lt;/div&gt;" style="text;html=1;align=center;verticalAlign=middle;resizable=0;points=[];autosize=1;strokeColor=none;fillColor=none;" parent="1" vertex="1">
                    <mxGeometry x="1365" y="1005" width="30" height="30" as="geometry"/>
                </mxCell>
                <mxCell id="BW8AyTwtvWDLKeVXaowr-36" value="1" style="text;html=1;align=center;verticalAlign=middle;resizable=0;points=[];autosize=1;strokeColor=none;fillColor=none;" parent="1" vertex="1">
                    <mxGeometry x="1525" y="1005" width="30" height="30" as="geometry"/>
                </mxCell>
                <mxCell id="BW8AyTwtvWDLKeVXaowr-37" value="N" style="text;html=1;align=center;verticalAlign=middle;resizable=0;points=[];autosize=1;strokeColor=none;fillColor=none;" parent="1" vertex="1">
                    <mxGeometry x="1755" y="930" width="30" height="30" as="geometry"/>
                </mxCell>
                <mxCell id="BW8AyTwtvWDLKeVXaowr-38" value="1" style="text;html=1;align=center;verticalAlign=middle;resizable=0;points=[];autosize=1;strokeColor=none;fillColor=none;" parent="1" vertex="1">
                    <mxGeometry x="995" y="865" width="30" height="30" as="geometry"/>
                </mxCell>
                <mxCell id="BW8AyTwtvWDLKeVXaowr-39" value="&lt;div&gt;N&lt;/div&gt;" style="text;html=1;align=center;verticalAlign=middle;resizable=0;points=[];autosize=1;strokeColor=none;fillColor=none;" parent="1" vertex="1">
                    <mxGeometry x="455" y="865" width="30" height="30" as="geometry"/>
                </mxCell>
            </root>
        </mxGraphModel>
    </diagram>
    <diagram id="4hpevhw-b1RFEGtkexod" name="V2">
        <mxGraphModel dx="1452" dy="470" grid="1" gridSize="10" guides="1" tooltips="1" connect="1" arrows="1" fold="1" page="1" pageScale="1" pageWidth="827" pageHeight="1169" math="0" shadow="0">
            <root>
                <mxCell id="S7jE9fLhOs19JBgYjtev-0"/>
                <mxCell id="S7jE9fLhOs19JBgYjtev-1" parent="S7jE9fLhOs19JBgYjtev-0"/>
                <mxCell id="S7jE9fLhOs19JBgYjtev-2" style="edgeStyle=orthogonalEdgeStyle;rounded=0;orthogonalLoop=1;jettySize=auto;html=1;exitX=0.5;exitY=1;exitDx=0;exitDy=0;entryX=0;entryY=0.5;entryDx=0;entryDy=0;endArrow=none;endFill=0;" parent="S7jE9fLhOs19JBgYjtev-1" source="S7jE9fLhOs19JBgYjtev-3" target="S7jE9fLhOs19JBgYjtev-11" edge="1">
                    <mxGeometry relative="1" as="geometry"/>
                </mxCell>
                <mxCell id="S7jE9fLhOs19JBgYjtev-3" value="Usuario" style="rounded=1;whiteSpace=wrap;html=1;" parent="S7jE9fLhOs19JBgYjtev-1" vertex="1">
                    <mxGeometry x="335" y="220" width="120" height="60" as="geometry"/>
                </mxCell>
                <mxCell id="S7jE9fLhOs19JBgYjtev-4" style="edgeStyle=orthogonalEdgeStyle;rounded=0;orthogonalLoop=1;jettySize=auto;html=1;exitX=0.5;exitY=1;exitDx=0;exitDy=0;entryX=0;entryY=0.5;entryDx=0;entryDy=0;endArrow=none;endFill=0;" parent="S7jE9fLhOs19JBgYjtev-1" source="S7jE9fLhOs19JBgYjtev-5" target="S7jE9fLhOs19JBgYjtev-13" edge="1">
                    <mxGeometry relative="1" as="geometry"/>
                </mxCell>
                <mxCell id="S7jE9fLhOs19JBgYjtev-5" value="Propietario" style="rounded=1;whiteSpace=wrap;html=1;" parent="S7jE9fLhOs19JBgYjtev-1" vertex="1">
                    <mxGeometry x="-5" y="380" width="120" height="60" as="geometry"/>
                </mxCell>
                <mxCell id="S7jE9fLhOs19JBgYjtev-6" style="edgeStyle=orthogonalEdgeStyle;rounded=0;orthogonalLoop=1;jettySize=auto;html=1;exitX=0.5;exitY=1;exitDx=0;exitDy=0;endArrow=none;endFill=0;entryX=0.5;entryY=0;entryDx=0;entryDy=0;" parent="S7jE9fLhOs19JBgYjtev-1" source="S7jE9fLhOs19JBgYjtev-8" target="S7jE9fLhOs19JBgYjtev-55" edge="1">
                    <mxGeometry relative="1" as="geometry">
                        <mxPoint x="510" y="510" as="targetPoint"/>
                    </mxGeometry>
                </mxCell>
                <mxCell id="S7jE9fLhOs19JBgYjtev-7" style="edgeStyle=orthogonalEdgeStyle;rounded=0;orthogonalLoop=1;jettySize=auto;html=1;entryX=0;entryY=0.5;entryDx=0;entryDy=0;endArrow=none;endFill=0;" parent="S7jE9fLhOs19JBgYjtev-1" source="S7jE9fLhOs19JBgYjtev-8" target="S7jE9fLhOs19JBgYjtev-24" edge="1">
                    <mxGeometry relative="1" as="geometry"/>
                </mxCell>
                <mxCell id="S7jE9fLhOs19JBgYjtev-8" value="Inquilino" style="rounded=1;whiteSpace=wrap;html=1;" parent="S7jE9fLhOs19JBgYjtev-1" vertex="1">
                    <mxGeometry x="610" y="370" width="120" height="60" as="geometry"/>
                </mxCell>
                <mxCell id="S7jE9fLhOs19JBgYjtev-9" style="rounded=0;orthogonalLoop=1;jettySize=auto;html=1;exitX=0.5;exitY=1;exitDx=0;exitDy=0;entryX=0.5;entryY=0;entryDx=0;entryDy=0;endArrow=none;endFill=0;" parent="S7jE9fLhOs19JBgYjtev-1" source="S7jE9fLhOs19JBgYjtev-11" target="S7jE9fLhOs19JBgYjtev-5" edge="1">
                    <mxGeometry relative="1" as="geometry"/>
                </mxCell>
                <mxCell id="S7jE9fLhOs19JBgYjtev-10" style="edgeStyle=none;rounded=0;orthogonalLoop=1;jettySize=auto;html=1;exitX=0.5;exitY=0;exitDx=0;exitDy=0;entryX=0.5;entryY=0;entryDx=0;entryDy=0;endArrow=none;endFill=0;" parent="S7jE9fLhOs19JBgYjtev-1" source="S7jE9fLhOs19JBgYjtev-11" target="S7jE9fLhOs19JBgYjtev-8" edge="1">
                    <mxGeometry relative="1" as="geometry"/>
                </mxCell>
                <mxCell id="S7jE9fLhOs19JBgYjtev-11" value="" style="triangle;whiteSpace=wrap;html=1;rotation=90;" parent="S7jE9fLhOs19JBgYjtev-1" vertex="1">
                    <mxGeometry x="370" y="335" width="50" height="50" as="geometry"/>
                </mxCell>
                <mxCell id="S7jE9fLhOs19JBgYjtev-12" style="edgeStyle=orthogonalEdgeStyle;rounded=0;orthogonalLoop=1;jettySize=auto;html=1;entryX=0.5;entryY=0;entryDx=0;entryDy=0;endArrow=none;endFill=0;exitX=1;exitY=0.5;exitDx=0;exitDy=0;" parent="S7jE9fLhOs19JBgYjtev-1" source="S7jE9fLhOs19JBgYjtev-13" target="S7jE9fLhOs19JBgYjtev-14" edge="1">
                    <mxGeometry relative="1" as="geometry">
                        <mxPoint x="530" y="570" as="sourcePoint"/>
                    </mxGeometry>
                </mxCell>
                <mxCell id="S7jE9fLhOs19JBgYjtev-13" value="Alquila" style="rhombus;whiteSpace=wrap;html=1;" parent="S7jE9fLhOs19JBgYjtev-1" vertex="1">
                    <mxGeometry x="100" y="510" width="130" height="60" as="geometry"/>
                </mxCell>
                <mxCell id="S7jE9fLhOs19JBgYjtev-14" value="Habitacion" style="rounded=1;whiteSpace=wrap;html=1;" parent="S7jE9fLhOs19JBgYjtev-1" vertex="1">
                    <mxGeometry x="335" y="640" width="120" height="60" as="geometry"/>
                </mxCell>
                <mxCell id="S7jE9fLhOs19JBgYjtev-15" style="edgeStyle=orthogonalEdgeStyle;rounded=0;orthogonalLoop=1;jettySize=auto;html=1;exitX=0.5;exitY=1;exitDx=0;exitDy=0;entryX=0.5;entryY=0;entryDx=0;entryDy=0;endArrow=none;endFill=0;" parent="S7jE9fLhOs19JBgYjtev-1" source="S7jE9fLhOs19JBgYjtev-16" target="S7jE9fLhOs19JBgYjtev-22" edge="1">
                    <mxGeometry relative="1" as="geometry"/>
                </mxCell>
                <mxCell id="S7jE9fLhOs19JBgYjtev-16" value="Sexo" style="rounded=1;whiteSpace=wrap;html=1;" parent="S7jE9fLhOs19JBgYjtev-1" vertex="1">
                    <mxGeometry x="585" y="20" width="120" height="60" as="geometry"/>
                </mxCell>
                <mxCell id="S7jE9fLhOs19JBgYjtev-17" style="edgeStyle=orthogonalEdgeStyle;rounded=0;orthogonalLoop=1;jettySize=auto;html=1;entryX=0.5;entryY=0;entryDx=0;entryDy=0;endArrow=none;endFill=0;" parent="S7jE9fLhOs19JBgYjtev-1" source="S7jE9fLhOs19JBgYjtev-18" target="S7jE9fLhOs19JBgYjtev-20" edge="1">
                    <mxGeometry relative="1" as="geometry"/>
                </mxCell>
                <mxCell id="S7jE9fLhOs19JBgYjtev-18" value="Idioma" style="rounded=1;whiteSpace=wrap;html=1;" parent="S7jE9fLhOs19JBgYjtev-1" vertex="1">
                    <mxGeometry x="145" y="20" width="120" height="60" as="geometry"/>
                </mxCell>
                <mxCell id="S7jE9fLhOs19JBgYjtev-19" style="edgeStyle=orthogonalEdgeStyle;rounded=0;orthogonalLoop=1;jettySize=auto;html=1;exitX=0.5;exitY=1;exitDx=0;exitDy=0;entryX=0;entryY=0.5;entryDx=0;entryDy=0;endArrow=none;endFill=0;" parent="S7jE9fLhOs19JBgYjtev-1" source="S7jE9fLhOs19JBgYjtev-20" target="S7jE9fLhOs19JBgYjtev-3" edge="1">
                    <mxGeometry relative="1" as="geometry"/>
                </mxCell>
                <mxCell id="S7jE9fLhOs19JBgYjtev-20" value="Habla" style="rhombus;whiteSpace=wrap;html=1;" parent="S7jE9fLhOs19JBgYjtev-1" vertex="1">
                    <mxGeometry x="140" y="140" width="130" height="60" as="geometry"/>
                </mxCell>
                <mxCell id="S7jE9fLhOs19JBgYjtev-21" style="edgeStyle=orthogonalEdgeStyle;rounded=0;orthogonalLoop=1;jettySize=auto;html=1;exitX=0.5;exitY=1;exitDx=0;exitDy=0;entryX=1;entryY=0.5;entryDx=0;entryDy=0;endArrow=none;endFill=0;" parent="S7jE9fLhOs19JBgYjtev-1" source="S7jE9fLhOs19JBgYjtev-22" target="S7jE9fLhOs19JBgYjtev-3" edge="1">
                    <mxGeometry relative="1" as="geometry"/>
                </mxCell>
                <mxCell id="S7jE9fLhOs19JBgYjtev-22" value="Es" style="rhombus;whiteSpace=wrap;html=1;" parent="S7jE9fLhOs19JBgYjtev-1" vertex="1">
                    <mxGeometry x="580" y="140" width="130" height="60" as="geometry"/>
                </mxCell>
                <mxCell id="S7jE9fLhOs19JBgYjtev-23" style="edgeStyle=orthogonalEdgeStyle;rounded=0;orthogonalLoop=1;jettySize=auto;html=1;exitX=0.5;exitY=1;exitDx=0;exitDy=0;entryX=1;entryY=0.5;entryDx=0;entryDy=0;endArrow=none;endFill=0;" parent="S7jE9fLhOs19JBgYjtev-1" source="S7jE9fLhOs19JBgYjtev-24" target="S7jE9fLhOs19JBgYjtev-14" edge="1">
                    <mxGeometry relative="1" as="geometry">
                        <mxPoint x="1022.5" y="200" as="targetPoint"/>
                    </mxGeometry>
                </mxCell>
                <mxCell id="S7jE9fLhOs19JBgYjtev-24" value="TIene" style="rhombus;whiteSpace=wrap;html=1;" parent="S7jE9fLhOs19JBgYjtev-1" vertex="1">
                    <mxGeometry x="877" y="370" width="130" height="60" as="geometry"/>
                </mxCell>
                <mxCell id="S7jE9fLhOs19JBgYjtev-25" style="edgeStyle=orthogonalEdgeStyle;rounded=0;orthogonalLoop=1;jettySize=auto;html=1;entryX=0;entryY=0.5;entryDx=0;entryDy=0;endArrow=none;endFill=0;" parent="S7jE9fLhOs19JBgYjtev-1" source="S7jE9fLhOs19JBgYjtev-26" target="S7jE9fLhOs19JBgYjtev-14" edge="1">
                    <mxGeometry relative="1" as="geometry"/>
                </mxCell>
                <mxCell id="S7jE9fLhOs19JBgYjtev-26" value="Ofrece" style="rhombus;whiteSpace=wrap;html=1;" parent="S7jE9fLhOs19JBgYjtev-1" vertex="1">
                    <mxGeometry x="75" y="640" width="130" height="60" as="geometry"/>
                </mxCell>
                <mxCell id="S7jE9fLhOs19JBgYjtev-27" style="edgeStyle=orthogonalEdgeStyle;rounded=0;orthogonalLoop=1;jettySize=auto;html=1;entryX=0;entryY=0.5;entryDx=0;entryDy=0;endArrow=none;endFill=0;" parent="S7jE9fLhOs19JBgYjtev-1" source="S7jE9fLhOs19JBgYjtev-28" target="S7jE9fLhOs19JBgYjtev-26" edge="1">
                    <mxGeometry relative="1" as="geometry"/>
                </mxCell>
                <mxCell id="S7jE9fLhOs19JBgYjtev-28" value="Servicios" style="rounded=1;whiteSpace=wrap;html=1;" parent="S7jE9fLhOs19JBgYjtev-1" vertex="1">
                    <mxGeometry x="-170" y="640" width="120" height="60" as="geometry"/>
                </mxCell>
                <mxCell id="S7jE9fLhOs19JBgYjtev-29" value="N" style="text;html=1;align=center;verticalAlign=middle;resizable=0;points=[];autosize=1;strokeColor=none;fillColor=none;" parent="S7jE9fLhOs19JBgYjtev-1" vertex="1">
                    <mxGeometry x="305" y="640" width="30" height="30" as="geometry"/>
                </mxCell>
                <mxCell id="S7jE9fLhOs19JBgYjtev-30" style="edgeStyle=orthogonalEdgeStyle;rounded=0;orthogonalLoop=1;jettySize=auto;html=1;entryX=0.5;entryY=1;entryDx=0;entryDy=0;endArrow=none;endFill=0;" parent="S7jE9fLhOs19JBgYjtev-1" source="S7jE9fLhOs19JBgYjtev-32" target="S7jE9fLhOs19JBgYjtev-14" edge="1">
                    <mxGeometry relative="1" as="geometry"/>
                </mxCell>
                <mxCell id="S7jE9fLhOs19JBgYjtev-31" style="edgeStyle=none;rounded=0;orthogonalLoop=1;jettySize=auto;html=1;exitX=0.5;exitY=1;exitDx=0;exitDy=0;entryX=0.5;entryY=0;entryDx=0;entryDy=0;endArrow=none;endFill=0;" parent="S7jE9fLhOs19JBgYjtev-1" source="S7jE9fLhOs19JBgYjtev-32" target="S7jE9fLhOs19JBgYjtev-37" edge="1">
                    <mxGeometry relative="1" as="geometry"/>
                </mxCell>
                <mxCell id="S7jE9fLhOs19JBgYjtev-32" value="está" style="rhombus;whiteSpace=wrap;html=1;" parent="S7jE9fLhOs19JBgYjtev-1" vertex="1">
                    <mxGeometry x="330" y="760" width="130" height="60" as="geometry"/>
                </mxCell>
                <mxCell id="S7jE9fLhOs19JBgYjtev-33" value="Apartamento" style="rounded=1;whiteSpace=wrap;html=1;" parent="S7jE9fLhOs19JBgYjtev-1" vertex="1">
                    <mxGeometry x="97.5" y="1080" width="120" height="60" as="geometry"/>
                </mxCell>
                <mxCell id="S7jE9fLhOs19JBgYjtev-34" value="Bajo" style="rounded=1;whiteSpace=wrap;html=1;" parent="S7jE9fLhOs19JBgYjtev-1" vertex="1">
                    <mxGeometry x="580" y="1080" width="120" height="60" as="geometry"/>
                </mxCell>
                <mxCell id="S7jE9fLhOs19JBgYjtev-35" value="Casa" style="rounded=1;whiteSpace=wrap;html=1;" parent="S7jE9fLhOs19JBgYjtev-1" vertex="1">
                    <mxGeometry x="335" y="1080" width="120" height="60" as="geometry"/>
                </mxCell>
                <mxCell id="S7jE9fLhOs19JBgYjtev-36" style="edgeStyle=none;rounded=0;orthogonalLoop=1;jettySize=auto;html=1;exitX=0.5;exitY=1;exitDx=0;exitDy=0;entryX=0.5;entryY=0;entryDx=0;entryDy=0;endArrow=none;endFill=0;" parent="S7jE9fLhOs19JBgYjtev-1" source="S7jE9fLhOs19JBgYjtev-37" target="S7jE9fLhOs19JBgYjtev-39" edge="1">
                    <mxGeometry relative="1" as="geometry"/>
                </mxCell>
                <mxCell id="S7jE9fLhOs19JBgYjtev-37" value="Vivienda" style="rounded=1;whiteSpace=wrap;html=1;" parent="S7jE9fLhOs19JBgYjtev-1" vertex="1">
                    <mxGeometry x="335" y="870" width="120" height="60" as="geometry"/>
                </mxCell>
                <mxCell id="S7jE9fLhOs19JBgYjtev-38" style="edgeStyle=none;rounded=0;orthogonalLoop=1;jettySize=auto;html=1;exitX=0.5;exitY=1;exitDx=0;exitDy=0;entryX=0;entryY=0.5;entryDx=0;entryDy=0;endArrow=none;endFill=0;" parent="S7jE9fLhOs19JBgYjtev-1" source="S7jE9fLhOs19JBgYjtev-39" target="S7jE9fLhOs19JBgYjtev-43" edge="1">
                    <mxGeometry relative="1" as="geometry"/>
                </mxCell>
                <mxCell id="S7jE9fLhOs19JBgYjtev-39" value="" style="ellipse;whiteSpace=wrap;html=1;aspect=fixed;" parent="S7jE9fLhOs19JBgYjtev-1" vertex="1">
                    <mxGeometry x="390" y="960" width="10" height="10" as="geometry"/>
                </mxCell>
                <mxCell id="S7jE9fLhOs19JBgYjtev-40" style="rounded=0;orthogonalLoop=1;jettySize=auto;html=1;exitX=0.5;exitY=1;exitDx=0;exitDy=0;entryX=0.5;entryY=0;entryDx=0;entryDy=0;endArrow=none;endFill=0;" parent="S7jE9fLhOs19JBgYjtev-1" source="S7jE9fLhOs19JBgYjtev-43" target="S7jE9fLhOs19JBgYjtev-33" edge="1">
                    <mxGeometry relative="1" as="geometry"/>
                </mxCell>
                <mxCell id="S7jE9fLhOs19JBgYjtev-41" style="edgeStyle=none;rounded=0;orthogonalLoop=1;jettySize=auto;html=1;exitX=1;exitY=0.5;exitDx=0;exitDy=0;entryX=0.5;entryY=0;entryDx=0;entryDy=0;endArrow=none;endFill=0;" parent="S7jE9fLhOs19JBgYjtev-1" source="S7jE9fLhOs19JBgYjtev-43" target="S7jE9fLhOs19JBgYjtev-35" edge="1">
                    <mxGeometry relative="1" as="geometry"/>
                </mxCell>
                <mxCell id="S7jE9fLhOs19JBgYjtev-42" style="edgeStyle=none;rounded=0;orthogonalLoop=1;jettySize=auto;html=1;exitX=0.5;exitY=0;exitDx=0;exitDy=0;entryX=0.5;entryY=0;entryDx=0;entryDy=0;endArrow=none;endFill=0;" parent="S7jE9fLhOs19JBgYjtev-1" source="S7jE9fLhOs19JBgYjtev-43" target="S7jE9fLhOs19JBgYjtev-34" edge="1">
                    <mxGeometry relative="1" as="geometry"/>
                </mxCell>
                <mxCell id="S7jE9fLhOs19JBgYjtev-43" value="" style="triangle;whiteSpace=wrap;html=1;rotation=90;" parent="S7jE9fLhOs19JBgYjtev-1" vertex="1">
                    <mxGeometry x="370" y="980" width="50" height="50" as="geometry"/>
                </mxCell>
                <mxCell id="S7jE9fLhOs19JBgYjtev-44" value="" style="curved=1;endArrow=none;html=1;rounded=0;endFill=0;" parent="S7jE9fLhOs19JBgYjtev-1" edge="1">
                    <mxGeometry width="50" height="50" relative="1" as="geometry">
                        <mxPoint x="295" y="1000" as="sourcePoint"/>
                        <mxPoint x="495" y="1000" as="targetPoint"/>
                        <Array as="points">
                            <mxPoint x="335" y="1040"/>
                            <mxPoint x="370" y="1050"/>
                            <mxPoint x="400" y="1050"/>
                            <mxPoint x="440" y="1050"/>
                        </Array>
                    </mxGeometry>
                </mxCell>
                <mxCell id="S7jE9fLhOs19JBgYjtev-45" value="Provincia" style="rounded=1;whiteSpace=wrap;html=1;" parent="S7jE9fLhOs19JBgYjtev-1" vertex="1">
                    <mxGeometry x="960" y="1010" width="120" height="60" as="geometry"/>
                </mxCell>
                <mxCell id="S7jE9fLhOs19JBgYjtev-46" style="edgeStyle=orthogonalEdgeStyle;rounded=0;orthogonalLoop=1;jettySize=auto;html=1;entryX=0;entryY=0.5;entryDx=0;entryDy=0;endArrow=none;endFill=0;" parent="S7jE9fLhOs19JBgYjtev-1" source="S7jE9fLhOs19JBgYjtev-47" target="S7jE9fLhOs19JBgYjtev-57" edge="1">
                    <mxGeometry relative="1" as="geometry"/>
                </mxCell>
                <mxCell id="S7jE9fLhOs19JBgYjtev-47" value="Barrio" style="rounded=1;whiteSpace=wrap;html=1;" parent="S7jE9fLhOs19JBgYjtev-1" vertex="1">
                    <mxGeometry x="1030" y="870" width="120" height="60" as="geometry"/>
                </mxCell>
                <mxCell id="S7jE9fLhOs19JBgYjtev-48" value="Locaclidad" style="rounded=1;whiteSpace=wrap;html=1;" parent="S7jE9fLhOs19JBgYjtev-1" vertex="1">
                    <mxGeometry x="1400" y="1010" width="120" height="60" as="geometry"/>
                </mxCell>
                <mxCell id="S7jE9fLhOs19JBgYjtev-49" style="edgeStyle=orthogonalEdgeStyle;rounded=0;orthogonalLoop=1;jettySize=auto;html=1;entryX=0.5;entryY=0;entryDx=0;entryDy=0;endArrow=none;endFill=0;" parent="S7jE9fLhOs19JBgYjtev-1" source="S7jE9fLhOs19JBgYjtev-50" target="S7jE9fLhOs19JBgYjtev-59" edge="1">
                    <mxGeometry relative="1" as="geometry"/>
                </mxCell>
                <mxCell id="S7jE9fLhOs19JBgYjtev-50" value="Código Postal" style="rounded=1;whiteSpace=wrap;html=1;" parent="S7jE9fLhOs19JBgYjtev-1" vertex="1">
                    <mxGeometry x="1720" y="870" width="120" height="60" as="geometry"/>
                </mxCell>
                <mxCell id="S7jE9fLhOs19JBgYjtev-51" style="edgeStyle=none;rounded=0;orthogonalLoop=1;jettySize=auto;html=1;entryX=1;entryY=0.5;entryDx=0;entryDy=0;endArrow=none;endFill=0;" parent="S7jE9fLhOs19JBgYjtev-1" source="S7jE9fLhOs19JBgYjtev-53" target="S7jE9fLhOs19JBgYjtev-37" edge="1">
                    <mxGeometry relative="1" as="geometry"/>
                </mxCell>
                <mxCell id="S7jE9fLhOs19JBgYjtev-52" style="edgeStyle=none;rounded=0;orthogonalLoop=1;jettySize=auto;html=1;entryX=0;entryY=0.5;entryDx=0;entryDy=0;endArrow=none;endFill=0;" parent="S7jE9fLhOs19JBgYjtev-1" source="S7jE9fLhOs19JBgYjtev-53" target="S7jE9fLhOs19JBgYjtev-47" edge="1">
                    <mxGeometry relative="1" as="geometry">
                        <mxPoint x="1107.4999999999995" y="900" as="targetPoint"/>
                    </mxGeometry>
                </mxCell>
                <mxCell id="S7jE9fLhOs19JBgYjtev-53" value="está" style="rhombus;whiteSpace=wrap;html=1;" parent="S7jE9fLhOs19JBgYjtev-1" vertex="1">
                    <mxGeometry x="710" y="870" width="130" height="60" as="geometry"/>
                </mxCell>
                <mxCell id="S7jE9fLhOs19JBgYjtev-54" style="edgeStyle=orthogonalEdgeStyle;rounded=0;orthogonalLoop=1;jettySize=auto;html=1;exitX=0;exitY=0.5;exitDx=0;exitDy=0;entryX=0.5;entryY=0;entryDx=0;entryDy=0;endArrow=none;endFill=0;" parent="S7jE9fLhOs19JBgYjtev-1" source="S7jE9fLhOs19JBgYjtev-55" target="S7jE9fLhOs19JBgYjtev-14" edge="1">
                    <mxGeometry relative="1" as="geometry"/>
                </mxCell>
                <mxCell id="S7jE9fLhOs19JBgYjtev-55" value="Alquila" style="rhombus;whiteSpace=wrap;html=1;" parent="S7jE9fLhOs19JBgYjtev-1" vertex="1">
                    <mxGeometry x="605" y="510" width="130" height="60" as="geometry"/>
                </mxCell>
                <mxCell id="S7jE9fLhOs19JBgYjtev-56" style="edgeStyle=orthogonalEdgeStyle;rounded=0;orthogonalLoop=1;jettySize=auto;html=1;entryX=0;entryY=0.5;entryDx=0;entryDy=0;endArrow=none;endFill=0;" parent="S7jE9fLhOs19JBgYjtev-1" source="S7jE9fLhOs19JBgYjtev-57" target="S7jE9fLhOs19JBgYjtev-50" edge="1">
                    <mxGeometry relative="1" as="geometry"/>
                </mxCell>
                <mxCell id="S7jE9fLhOs19JBgYjtev-57" value="está" style="rhombus;whiteSpace=wrap;html=1;" parent="S7jE9fLhOs19JBgYjtev-1" vertex="1">
                    <mxGeometry x="1395" y="870" width="130" height="60" as="geometry"/>
                </mxCell>
                <mxCell id="S7jE9fLhOs19JBgYjtev-58" style="edgeStyle=orthogonalEdgeStyle;rounded=0;orthogonalLoop=1;jettySize=auto;html=1;entryX=1;entryY=0.5;entryDx=0;entryDy=0;endArrow=none;endFill=0;" parent="S7jE9fLhOs19JBgYjtev-1" source="S7jE9fLhOs19JBgYjtev-59" target="S7jE9fLhOs19JBgYjtev-48" edge="1">
                    <mxGeometry relative="1" as="geometry"/>
                </mxCell>
                <mxCell id="S7jE9fLhOs19JBgYjtev-59" value="está" style="rhombus;whiteSpace=wrap;html=1;" parent="S7jE9fLhOs19JBgYjtev-1" vertex="1">
                    <mxGeometry x="1715" y="1010" width="130" height="60" as="geometry"/>
                </mxCell>
                <mxCell id="S7jE9fLhOs19JBgYjtev-60" style="edgeStyle=orthogonalEdgeStyle;rounded=0;orthogonalLoop=1;jettySize=auto;html=1;entryX=0;entryY=0.5;entryDx=0;entryDy=0;endArrow=none;endFill=0;" parent="S7jE9fLhOs19JBgYjtev-1" source="S7jE9fLhOs19JBgYjtev-62" target="S7jE9fLhOs19JBgYjtev-48" edge="1">
                    <mxGeometry relative="1" as="geometry"/>
                </mxCell>
                <mxCell id="S7jE9fLhOs19JBgYjtev-61" style="edgeStyle=orthogonalEdgeStyle;rounded=0;orthogonalLoop=1;jettySize=auto;html=1;entryX=1;entryY=0.5;entryDx=0;entryDy=0;endArrow=none;endFill=0;" parent="S7jE9fLhOs19JBgYjtev-1" source="S7jE9fLhOs19JBgYjtev-62" target="S7jE9fLhOs19JBgYjtev-45" edge="1">
                    <mxGeometry relative="1" as="geometry"/>
                </mxCell>
                <mxCell id="S7jE9fLhOs19JBgYjtev-62" value="está" style="rhombus;whiteSpace=wrap;html=1;" parent="S7jE9fLhOs19JBgYjtev-1" vertex="1">
                    <mxGeometry x="1170" y="1010" width="130" height="60" as="geometry"/>
                </mxCell>
                <mxCell id="S7jE9fLhOs19JBgYjtev-63" value="(N,1)" style="text;html=1;align=center;verticalAlign=middle;resizable=0;points=[];autosize=1;strokeColor=none;fillColor=none;" parent="S7jE9fLhOs19JBgYjtev-1" vertex="1">
                    <mxGeometry x="1400" y="850" width="50" height="30" as="geometry"/>
                </mxCell>
                <mxCell id="S7jE9fLhOs19JBgYjtev-64" value="N" style="text;html=1;align=center;verticalAlign=middle;resizable=0;points=[];autosize=1;strokeColor=none;fillColor=none;" parent="S7jE9fLhOs19JBgYjtev-1" vertex="1">
                    <mxGeometry x="305" y="220" width="30" height="30" as="geometry"/>
                </mxCell>
                <mxCell id="S7jE9fLhOs19JBgYjtev-65" value="M" style="text;html=1;align=center;verticalAlign=middle;resizable=0;points=[];autosize=1;strokeColor=none;fillColor=none;" parent="S7jE9fLhOs19JBgYjtev-1" vertex="1">
                    <mxGeometry x="200" y="80" width="30" height="30" as="geometry"/>
                </mxCell>
                <mxCell id="S7jE9fLhOs19JBgYjtev-66" value="N" style="text;html=1;align=center;verticalAlign=middle;resizable=0;points=[];autosize=1;strokeColor=none;fillColor=none;" parent="S7jE9fLhOs19JBgYjtev-1" vertex="1">
                    <mxGeometry x="455" y="220" width="30" height="30" as="geometry"/>
                </mxCell>
                <mxCell id="S7jE9fLhOs19JBgYjtev-67" value="1" style="text;html=1;align=center;verticalAlign=middle;resizable=0;points=[];autosize=1;strokeColor=none;fillColor=none;" parent="S7jE9fLhOs19JBgYjtev-1" vertex="1">
                    <mxGeometry x="640" y="80" width="30" height="30" as="geometry"/>
                </mxCell>
                <mxCell id="S7jE9fLhOs19JBgYjtev-68" value="1" style="text;html=1;align=center;verticalAlign=middle;resizable=0;points=[];autosize=1;strokeColor=none;fillColor=none;" parent="S7jE9fLhOs19JBgYjtev-1" vertex="1">
                    <mxGeometry x="55" y="440" width="30" height="30" as="geometry"/>
                </mxCell>
                <mxCell id="S7jE9fLhOs19JBgYjtev-69" value="N" style="text;html=1;align=center;verticalAlign=middle;resizable=0;points=[];autosize=1;strokeColor=none;fillColor=none;" parent="S7jE9fLhOs19JBgYjtev-1" vertex="1">
                    <mxGeometry x="365" y="605" width="30" height="30" as="geometry"/>
                </mxCell>
                <mxCell id="S7jE9fLhOs19JBgYjtev-70" value="1" style="text;html=1;align=center;verticalAlign=middle;resizable=0;points=[];autosize=1;strokeColor=none;fillColor=none;" parent="S7jE9fLhOs19JBgYjtev-1" vertex="1">
                    <mxGeometry x="395" y="605" width="30" height="30" as="geometry"/>
                </mxCell>
                <mxCell id="S7jE9fLhOs19JBgYjtev-71" value="&lt;div&gt;2&lt;/div&gt;&lt;div&gt;&lt;br&gt;&lt;/div&gt;" style="text;html=1;align=center;verticalAlign=middle;resizable=0;points=[];autosize=1;strokeColor=none;fillColor=none;" parent="S7jE9fLhOs19JBgYjtev-1" vertex="1">
                    <mxGeometry x="670" y="430" width="30" height="40" as="geometry"/>
                </mxCell>
                <mxCell id="S7jE9fLhOs19JBgYjtev-72" value="N" style="text;html=1;align=center;verticalAlign=middle;resizable=0;points=[];autosize=1;strokeColor=none;fillColor=none;" parent="S7jE9fLhOs19JBgYjtev-1" vertex="1">
                    <mxGeometry x="730" y="370" width="30" height="30" as="geometry"/>
                </mxCell>
                <mxCell id="S7jE9fLhOs19JBgYjtev-73" value="&lt;div&gt;M&lt;/div&gt;" style="text;html=1;align=center;verticalAlign=middle;resizable=0;points=[];autosize=1;strokeColor=none;fillColor=none;" parent="S7jE9fLhOs19JBgYjtev-1" vertex="1">
                    <mxGeometry x="455" y="640" width="30" height="30" as="geometry"/>
                </mxCell>
                <mxCell id="S7jE9fLhOs19JBgYjtev-74" value="M" style="text;html=1;align=center;verticalAlign=middle;resizable=0;points=[];autosize=1;strokeColor=none;fillColor=none;" parent="S7jE9fLhOs19JBgYjtev-1" vertex="1">
                    <mxGeometry x="-40" y="635" width="30" height="30" as="geometry"/>
                </mxCell>
                <mxCell id="S7jE9fLhOs19JBgYjtev-75" value="1" style="text;html=1;align=center;verticalAlign=middle;resizable=0;points=[];autosize=1;strokeColor=none;fillColor=none;" parent="S7jE9fLhOs19JBgYjtev-1" vertex="1">
                    <mxGeometry x="365" y="840" width="30" height="30" as="geometry"/>
                </mxCell>
                <mxCell id="S7jE9fLhOs19JBgYjtev-76" value="&lt;div&gt;N&lt;/div&gt;" style="text;html=1;align=center;verticalAlign=middle;resizable=0;points=[];autosize=1;strokeColor=none;fillColor=none;" parent="S7jE9fLhOs19JBgYjtev-1" vertex="1">
                    <mxGeometry x="365" y="700" width="30" height="30" as="geometry"/>
                </mxCell>
                <mxCell id="S7jE9fLhOs19JBgYjtev-77" value="1" style="text;html=1;align=center;verticalAlign=middle;resizable=0;points=[];autosize=1;strokeColor=none;fillColor=none;" parent="S7jE9fLhOs19JBgYjtev-1" vertex="1">
                    <mxGeometry x="1085" y="1005" width="30" height="30" as="geometry"/>
                </mxCell>
                <mxCell id="S7jE9fLhOs19JBgYjtev-78" value="&lt;div&gt;N&lt;/div&gt;" style="text;html=1;align=center;verticalAlign=middle;resizable=0;points=[];autosize=1;strokeColor=none;fillColor=none;" parent="S7jE9fLhOs19JBgYjtev-1" vertex="1">
                    <mxGeometry x="1365" y="1005" width="30" height="30" as="geometry"/>
                </mxCell>
                <mxCell id="S7jE9fLhOs19JBgYjtev-79" value="1" style="text;html=1;align=center;verticalAlign=middle;resizable=0;points=[];autosize=1;strokeColor=none;fillColor=none;" parent="S7jE9fLhOs19JBgYjtev-1" vertex="1">
                    <mxGeometry x="1525" y="1005" width="30" height="30" as="geometry"/>
                </mxCell>
                <mxCell id="S7jE9fLhOs19JBgYjtev-80" value="N" style="text;html=1;align=center;verticalAlign=middle;resizable=0;points=[];autosize=1;strokeColor=none;fillColor=none;" parent="S7jE9fLhOs19JBgYjtev-1" vertex="1">
                    <mxGeometry x="1755" y="930" width="30" height="30" as="geometry"/>
                </mxCell>
                <mxCell id="S7jE9fLhOs19JBgYjtev-81" value="1" style="text;html=1;align=center;verticalAlign=middle;resizable=0;points=[];autosize=1;strokeColor=none;fillColor=none;" parent="S7jE9fLhOs19JBgYjtev-1" vertex="1">
                    <mxGeometry x="995" y="865" width="30" height="30" as="geometry"/>
                </mxCell>
                <mxCell id="S7jE9fLhOs19JBgYjtev-82" value="&lt;div&gt;N&lt;/div&gt;" style="text;html=1;align=center;verticalAlign=middle;resizable=0;points=[];autosize=1;strokeColor=none;fillColor=none;" parent="S7jE9fLhOs19JBgYjtev-1" vertex="1">
                    <mxGeometry x="455" y="865" width="30" height="30" as="geometry"/>
                </mxCell>
            </root>
        </mxGraphModel>
    </diagram>
    <diagram id="xZJFDrdu89HT8YZXAv1b" name="Mod Relacional">
        <mxGraphModel dx="625" dy="470" grid="1" gridSize="10" guides="1" tooltips="1" connect="1" arrows="1" fold="1" page="1" pageScale="1" pageWidth="827" pageHeight="1169" math="0" shadow="0">
            <root>
                <mxCell id="3P9vYqggmoVd66ATI-ag-0"/>
                <mxCell id="3P9vYqggmoVd66ATI-ag-1" parent="3P9vYqggmoVd66ATI-ag-0"/>
                <mxCell id="gSQ7XDj68sB4ATU-AIMv-0" value="User" style="shape=table;startSize=30;container=1;collapsible=1;childLayout=tableLayout;fixedRows=1;rowLines=0;fontStyle=1;align=center;resizeLast=1;" parent="3P9vYqggmoVd66ATI-ag-1" vertex="1">
                    <mxGeometry x="240" y="80" width="180" height="280" as="geometry"/>
                </mxCell>
                <mxCell id="gSQ7XDj68sB4ATU-AIMv-1" value="" style="shape=partialRectangle;collapsible=0;dropTarget=0;pointerEvents=0;fillColor=none;top=0;left=0;bottom=1;right=0;points=[[0,0.5],[1,0.5]];portConstraint=eastwest;" parent="gSQ7XDj68sB4ATU-AIMv-0" vertex="1">
                    <mxGeometry y="30" width="180" height="30" as="geometry"/>
                </mxCell>
                <mxCell id="gSQ7XDj68sB4ATU-AIMv-2" value="PK" style="shape=partialRectangle;connectable=0;fillColor=none;top=0;left=0;bottom=0;right=0;fontStyle=1;overflow=hidden;" parent="gSQ7XDj68sB4ATU-AIMv-1" vertex="1">
                    <mxGeometry width="30" height="30" as="geometry">
                        <mxRectangle width="30" height="30" as="alternateBounds"/>
                    </mxGeometry>
                </mxCell>
                <mxCell id="gSQ7XDj68sB4ATU-AIMv-3" value="ID" style="shape=partialRectangle;connectable=0;fillColor=none;top=0;left=0;bottom=0;right=0;align=left;spacingLeft=6;fontStyle=5;overflow=hidden;" parent="gSQ7XDj68sB4ATU-AIMv-1" vertex="1">
                    <mxGeometry x="30" width="150" height="30" as="geometry">
                        <mxRectangle width="150" height="30" as="alternateBounds"/>
                    </mxGeometry>
                </mxCell>
                <mxCell id="gSQ7XDj68sB4ATU-AIMv-4" value="" style="shape=partialRectangle;collapsible=0;dropTarget=0;pointerEvents=0;fillColor=none;top=0;left=0;bottom=0;right=0;points=[[0,0.5],[1,0.5]];portConstraint=eastwest;" parent="gSQ7XDj68sB4ATU-AIMv-0" vertex="1">
                    <mxGeometry y="60" width="180" height="30" as="geometry"/>
                </mxCell>
                <mxCell id="gSQ7XDj68sB4ATU-AIMv-5" value="" style="shape=partialRectangle;connectable=0;fillColor=none;top=0;left=0;bottom=0;right=0;editable=1;overflow=hidden;" parent="gSQ7XDj68sB4ATU-AIMv-4" vertex="1">
                    <mxGeometry width="30" height="30" as="geometry">
                        <mxRectangle width="30" height="30" as="alternateBounds"/>
                    </mxGeometry>
                </mxCell>
                <mxCell id="gSQ7XDj68sB4ATU-AIMv-6" value="User        varchar(20)" style="shape=partialRectangle;connectable=0;fillColor=none;top=0;left=0;bottom=0;right=0;align=left;spacingLeft=6;overflow=hidden;" parent="gSQ7XDj68sB4ATU-AIMv-4" vertex="1">
                    <mxGeometry x="30" width="150" height="30" as="geometry">
                        <mxRectangle width="150" height="30" as="alternateBounds"/>
                    </mxGeometry>
                </mxCell>
                <mxCell id="gSQ7XDj68sB4ATU-AIMv-7" value="" style="shape=partialRectangle;collapsible=0;dropTarget=0;pointerEvents=0;fillColor=none;top=0;left=0;bottom=0;right=0;points=[[0,0.5],[1,0.5]];portConstraint=eastwest;" parent="gSQ7XDj68sB4ATU-AIMv-0" vertex="1">
                    <mxGeometry y="90" width="180" height="30" as="geometry"/>
                </mxCell>
                <mxCell id="gSQ7XDj68sB4ATU-AIMv-8" value="" style="shape=partialRectangle;connectable=0;fillColor=none;top=0;left=0;bottom=0;right=0;editable=1;overflow=hidden;" parent="gSQ7XDj68sB4ATU-AIMv-7" vertex="1">
                    <mxGeometry width="30" height="30" as="geometry">
                        <mxRectangle width="30" height="30" as="alternateBounds"/>
                    </mxGeometry>
                </mxCell>
                <mxCell id="gSQ7XDj68sB4ATU-AIMv-9" value="Password    varcahr(20)" style="shape=partialRectangle;connectable=0;fillColor=none;top=0;left=0;bottom=0;right=0;align=left;spacingLeft=6;overflow=hidden;" parent="gSQ7XDj68sB4ATU-AIMv-7" vertex="1">
                    <mxGeometry x="30" width="150" height="30" as="geometry">
                        <mxRectangle width="150" height="30" as="alternateBounds"/>
                    </mxGeometry>
                </mxCell>
                <mxCell id="gSQ7XDj68sB4ATU-AIMv-65" style="shape=partialRectangle;collapsible=0;dropTarget=0;pointerEvents=0;fillColor=none;top=0;left=0;bottom=0;right=0;points=[[0,0.5],[1,0.5]];portConstraint=eastwest;" parent="gSQ7XDj68sB4ATU-AIMv-0" vertex="1">
                    <mxGeometry y="120" width="180" height="30" as="geometry"/>
                </mxCell>
                <mxCell id="gSQ7XDj68sB4ATU-AIMv-66" style="shape=partialRectangle;connectable=0;fillColor=none;top=0;left=0;bottom=0;right=0;editable=1;overflow=hidden;" parent="gSQ7XDj68sB4ATU-AIMv-65" vertex="1">
                    <mxGeometry width="30" height="30" as="geometry">
                        <mxRectangle width="30" height="30" as="alternateBounds"/>
                    </mxGeometry>
                </mxCell>
                <mxCell id="gSQ7XDj68sB4ATU-AIMv-67" value="Credit_Card    int" style="shape=partialRectangle;connectable=0;fillColor=none;top=0;left=0;bottom=0;right=0;align=left;spacingLeft=6;overflow=hidden;" parent="gSQ7XDj68sB4ATU-AIMv-65" vertex="1">
                    <mxGeometry x="30" width="150" height="30" as="geometry">
                        <mxRectangle width="150" height="30" as="alternateBounds"/>
                    </mxGeometry>
                </mxCell>
                <mxCell id="gSQ7XDj68sB4ATU-AIMv-77" style="shape=partialRectangle;collapsible=0;dropTarget=0;pointerEvents=0;fillColor=none;top=0;left=0;bottom=0;right=0;points=[[0,0.5],[1,0.5]];portConstraint=eastwest;" parent="gSQ7XDj68sB4ATU-AIMv-0" vertex="1">
                    <mxGeometry y="150" width="180" height="30" as="geometry"/>
                </mxCell>
                <mxCell id="gSQ7XDj68sB4ATU-AIMv-78" style="shape=partialRectangle;connectable=0;fillColor=none;top=0;left=0;bottom=0;right=0;editable=1;overflow=hidden;" parent="gSQ7XDj68sB4ATU-AIMv-77" vertex="1">
                    <mxGeometry width="30" height="30" as="geometry">
                        <mxRectangle width="30" height="30" as="alternateBounds"/>
                    </mxGeometry>
                </mxCell>
                <mxCell id="gSQ7XDj68sB4ATU-AIMv-79" value="Phone_Number    int" style="shape=partialRectangle;connectable=0;fillColor=none;top=0;left=0;bottom=0;right=0;align=left;spacingLeft=6;overflow=hidden;" parent="gSQ7XDj68sB4ATU-AIMv-77" vertex="1">
                    <mxGeometry x="30" width="150" height="30" as="geometry">
                        <mxRectangle width="150" height="30" as="alternateBounds"/>
                    </mxGeometry>
                </mxCell>
                <mxCell id="gSQ7XDj68sB4ATU-AIMv-10" value="" style="shape=partialRectangle;collapsible=0;dropTarget=0;pointerEvents=0;fillColor=none;top=0;left=0;bottom=0;right=0;points=[[0,0.5],[1,0.5]];portConstraint=eastwest;" parent="gSQ7XDj68sB4ATU-AIMv-0" vertex="1">
                    <mxGeometry y="180" width="180" height="30" as="geometry"/>
                </mxCell>
                <mxCell id="gSQ7XDj68sB4ATU-AIMv-11" value="" style="shape=partialRectangle;connectable=0;fillColor=none;top=0;left=0;bottom=0;right=0;editable=1;overflow=hidden;" parent="gSQ7XDj68sB4ATU-AIMv-10" vertex="1">
                    <mxGeometry width="30" height="30" as="geometry">
                        <mxRectangle width="30" height="30" as="alternateBounds"/>
                    </mxGeometry>
                </mxCell>
                <mxCell id="gSQ7XDj68sB4ATU-AIMv-12" value="About        varchar(100)" style="shape=partialRectangle;connectable=0;fillColor=none;top=0;left=0;bottom=0;right=0;align=left;spacingLeft=6;overflow=hidden;" parent="gSQ7XDj68sB4ATU-AIMv-10" vertex="1">
                    <mxGeometry x="30" width="150" height="30" as="geometry">
                        <mxRectangle width="150" height="30" as="alternateBounds"/>
                    </mxGeometry>
                </mxCell>
                <mxCell id="gSQ7XDj68sB4ATU-AIMv-71" style="shape=partialRectangle;collapsible=0;dropTarget=0;pointerEvents=0;fillColor=none;top=0;left=0;bottom=0;right=0;points=[[0,0.5],[1,0.5]];portConstraint=eastwest;" parent="gSQ7XDj68sB4ATU-AIMv-0" vertex="1">
                    <mxGeometry y="210" width="180" height="30" as="geometry"/>
                </mxCell>
                <mxCell id="gSQ7XDj68sB4ATU-AIMv-72" style="shape=partialRectangle;connectable=0;fillColor=none;top=0;left=0;bottom=0;right=0;editable=1;overflow=hidden;" parent="gSQ7XDj68sB4ATU-AIMv-71" vertex="1">
                    <mxGeometry width="30" height="30" as="geometry">
                        <mxRectangle width="30" height="30" as="alternateBounds"/>
                    </mxGeometry>
                </mxCell>
                <mxCell id="gSQ7XDj68sB4ATU-AIMv-73" value="Rating        float" style="shape=partialRectangle;connectable=0;fillColor=none;top=0;left=0;bottom=0;right=0;align=left;spacingLeft=6;overflow=hidden;" parent="gSQ7XDj68sB4ATU-AIMv-71" vertex="1">
                    <mxGeometry x="30" width="150" height="30" as="geometry">
                        <mxRectangle width="150" height="30" as="alternateBounds"/>
                    </mxGeometry>
                </mxCell>
                <mxCell id="gSQ7XDj68sB4ATU-AIMv-13" style="shape=partialRectangle;collapsible=0;dropTarget=0;pointerEvents=0;fillColor=none;top=0;left=0;bottom=0;right=0;points=[[0,0.5],[1,0.5]];portConstraint=eastwest;" parent="gSQ7XDj68sB4ATU-AIMv-0" vertex="1">
                    <mxGeometry y="240" width="180" height="30" as="geometry"/>
                </mxCell>
                <mxCell id="gSQ7XDj68sB4ATU-AIMv-14" style="shape=partialRectangle;connectable=0;fillColor=none;top=0;left=0;bottom=0;right=0;editable=1;overflow=hidden;" parent="gSQ7XDj68sB4ATU-AIMv-13" vertex="1">
                    <mxGeometry width="30" height="30" as="geometry">
                        <mxRectangle width="30" height="30" as="alternateBounds"/>
                    </mxGeometry>
                </mxCell>
                <mxCell id="gSQ7XDj68sB4ATU-AIMv-15" value="Verified        bit" style="shape=partialRectangle;connectable=0;fillColor=none;top=0;left=0;bottom=0;right=0;align=left;spacingLeft=6;overflow=hidden;" parent="gSQ7XDj68sB4ATU-AIMv-13" vertex="1">
                    <mxGeometry x="30" width="150" height="30" as="geometry">
                        <mxRectangle width="150" height="30" as="alternateBounds"/>
                    </mxGeometry>
                </mxCell>
                <mxCell id="gSQ7XDj68sB4ATU-AIMv-45" value="Owner" style="shape=table;startSize=30;container=1;collapsible=1;childLayout=tableLayout;fixedRows=1;rowLines=0;fontStyle=1;align=center;resizeLast=1;" parent="3P9vYqggmoVd66ATI-ag-1" vertex="1">
                    <mxGeometry x="520" y="80" width="180" height="130" as="geometry"/>
                </mxCell>
                <mxCell id="gSQ7XDj68sB4ATU-AIMv-46" value="" style="shape=partialRectangle;collapsible=0;dropTarget=0;pointerEvents=0;fillColor=none;top=0;left=0;bottom=1;right=0;points=[[0,0.5],[1,0.5]];portConstraint=eastwest;" parent="gSQ7XDj68sB4ATU-AIMv-45" vertex="1">
                    <mxGeometry y="30" width="180" height="30" as="geometry"/>
                </mxCell>
                <mxCell id="gSQ7XDj68sB4ATU-AIMv-47" value="PK" style="shape=partialRectangle;connectable=0;fillColor=none;top=0;left=0;bottom=0;right=0;fontStyle=1;overflow=hidden;" parent="gSQ7XDj68sB4ATU-AIMv-46" vertex="1">
                    <mxGeometry width="30" height="30" as="geometry">
                        <mxRectangle width="30" height="30" as="alternateBounds"/>
                    </mxGeometry>
                </mxCell>
                <mxCell id="gSQ7XDj68sB4ATU-AIMv-48" value="ID" style="shape=partialRectangle;connectable=0;fillColor=none;top=0;left=0;bottom=0;right=0;align=left;spacingLeft=6;fontStyle=5;overflow=hidden;" parent="gSQ7XDj68sB4ATU-AIMv-46" vertex="1">
                    <mxGeometry x="30" width="150" height="30" as="geometry">
                        <mxRectangle width="150" height="30" as="alternateBounds"/>
                    </mxGeometry>
                </mxCell>
                <mxCell id="gSQ7XDj68sB4ATU-AIMv-49" value="" style="shape=partialRectangle;collapsible=0;dropTarget=0;pointerEvents=0;fillColor=none;top=0;left=0;bottom=0;right=0;points=[[0,0.5],[1,0.5]];portConstraint=eastwest;" parent="gSQ7XDj68sB4ATU-AIMv-45" vertex="1">
                    <mxGeometry y="60" width="180" height="30" as="geometry"/>
                </mxCell>
                <mxCell id="gSQ7XDj68sB4ATU-AIMv-50" value="" style="shape=partialRectangle;connectable=0;fillColor=none;top=0;left=0;bottom=0;right=0;editable=1;overflow=hidden;" parent="gSQ7XDj68sB4ATU-AIMv-49" vertex="1">
                    <mxGeometry width="30" height="30" as="geometry">
                        <mxRectangle width="30" height="30" as="alternateBounds"/>
                    </mxGeometry>
                </mxCell>
                <mxCell id="gSQ7XDj68sB4ATU-AIMv-51" value="Deposits        float" style="shape=partialRectangle;connectable=0;fillColor=none;top=0;left=0;bottom=0;right=0;align=left;spacingLeft=6;overflow=hidden;" parent="gSQ7XDj68sB4ATU-AIMv-49" vertex="1">
                    <mxGeometry x="30" width="150" height="30" as="geometry">
                        <mxRectangle width="150" height="30" as="alternateBounds"/>
                    </mxGeometry>
                </mxCell>
                <mxCell id="gSQ7XDj68sB4ATU-AIMv-74" style="shape=partialRectangle;collapsible=0;dropTarget=0;pointerEvents=0;fillColor=none;top=0;left=0;bottom=0;right=0;points=[[0,0.5],[1,0.5]];portConstraint=eastwest;" parent="gSQ7XDj68sB4ATU-AIMv-45" vertex="1">
                    <mxGeometry y="90" width="180" height="30" as="geometry"/>
                </mxCell>
                <mxCell id="gSQ7XDj68sB4ATU-AIMv-75" style="shape=partialRectangle;connectable=0;fillColor=none;top=0;left=0;bottom=0;right=0;editable=1;overflow=hidden;" parent="gSQ7XDj68sB4ATU-AIMv-74" vertex="1">
                    <mxGeometry width="30" height="30" as="geometry">
                        <mxRectangle width="30" height="30" as="alternateBounds"/>
                    </mxGeometry>
                </mxCell>
                <mxCell id="gSQ7XDj68sB4ATU-AIMv-76" value="Banck_Account    int" style="shape=partialRectangle;connectable=0;fillColor=none;top=0;left=0;bottom=0;right=0;align=left;spacingLeft=6;overflow=hidden;" parent="gSQ7XDj68sB4ATU-AIMv-74" vertex="1">
                    <mxGeometry x="30" width="150" height="30" as="geometry">
                        <mxRectangle width="150" height="30" as="alternateBounds"/>
                    </mxGeometry>
                </mxCell>
                <mxCell id="gSQ7XDj68sB4ATU-AIMv-58" value="Tenant" style="shape=table;startSize=30;container=1;collapsible=1;childLayout=tableLayout;fixedRows=1;rowLines=0;fontStyle=1;align=center;resizeLast=1;" parent="3P9vYqggmoVd66ATI-ag-1" vertex="1">
                    <mxGeometry x="560" y="310" width="180" height="100" as="geometry"/>
                </mxCell>
                <mxCell id="gSQ7XDj68sB4ATU-AIMv-59" value="" style="shape=partialRectangle;collapsible=0;dropTarget=0;pointerEvents=0;fillColor=none;top=0;left=0;bottom=1;right=0;points=[[0,0.5],[1,0.5]];portConstraint=eastwest;" parent="gSQ7XDj68sB4ATU-AIMv-58" vertex="1">
                    <mxGeometry y="30" width="180" height="30" as="geometry"/>
                </mxCell>
                <mxCell id="gSQ7XDj68sB4ATU-AIMv-60" value="PK" style="shape=partialRectangle;connectable=0;fillColor=none;top=0;left=0;bottom=0;right=0;fontStyle=1;overflow=hidden;" parent="gSQ7XDj68sB4ATU-AIMv-59" vertex="1">
                    <mxGeometry width="30" height="30" as="geometry">
                        <mxRectangle width="30" height="30" as="alternateBounds"/>
                    </mxGeometry>
                </mxCell>
                <mxCell id="gSQ7XDj68sB4ATU-AIMv-61" value="ID" style="shape=partialRectangle;connectable=0;fillColor=none;top=0;left=0;bottom=0;right=0;align=left;spacingLeft=6;fontStyle=5;overflow=hidden;" parent="gSQ7XDj68sB4ATU-AIMv-59" vertex="1">
                    <mxGeometry x="30" width="150" height="30" as="geometry">
                        <mxRectangle width="150" height="30" as="alternateBounds"/>
                    </mxGeometry>
                </mxCell>
                <mxCell id="gSQ7XDj68sB4ATU-AIMv-62" value="" style="shape=partialRectangle;collapsible=0;dropTarget=0;pointerEvents=0;fillColor=none;top=0;left=0;bottom=0;right=0;points=[[0,0.5],[1,0.5]];portConstraint=eastwest;" parent="gSQ7XDj68sB4ATU-AIMv-58" vertex="1">
                    <mxGeometry y="60" width="180" height="30" as="geometry"/>
                </mxCell>
                <mxCell id="gSQ7XDj68sB4ATU-AIMv-63" value="" style="shape=partialRectangle;connectable=0;fillColor=none;top=0;left=0;bottom=0;right=0;editable=1;overflow=hidden;" parent="gSQ7XDj68sB4ATU-AIMv-62" vertex="1">
                    <mxGeometry width="30" height="30" as="geometry">
                        <mxRectangle width="30" height="30" as="alternateBounds"/>
                    </mxGeometry>
                </mxCell>
                <mxCell id="gSQ7XDj68sB4ATU-AIMv-64" value="Payements        float" style="shape=partialRectangle;connectable=0;fillColor=none;top=0;left=0;bottom=0;right=0;align=left;spacingLeft=6;overflow=hidden;" parent="gSQ7XDj68sB4ATU-AIMv-62" vertex="1">
                    <mxGeometry x="30" width="150" height="30" as="geometry">
                        <mxRectangle width="150" height="30" as="alternateBounds"/>
                    </mxGeometry>
                </mxCell>
            </root>
        </mxGraphModel>
    </diagram>
</mxfile>